<svg width="103" height="19" viewBox="0 0 103 19" fill="none" xmlns="http://www.w3.org/2000/svg">
<path d="M9.5 0L11.9346 6.14905L18.535 6.56434L13.4393 10.7799L15.084 17.1857L9.5 13.642L3.91604 17.1857L5.56072 10.7799L0.464963 6.56434L7.06539 6.14905L9.5 0Z" fill="#3B3B3B"/>
<path d="M30.5 0L32.9346 6.14905L39.535 6.56434L34.4393 10.7799L36.084 17.1857L30.5 13.642L24.916 17.1857L26.5607 10.7799L21.465 6.56434L28.0654 6.14905L30.5 0Z" fill="#3B3B3B"/>
<path d="M51.5 0L53.9346 6.14905L60.535 6.56434L55.4393 10.7799L57.084 17.1857L51.5 13.642L45.916 17.1857L47.5607 10.7799L42.465 6.56434L49.0654 6.14905L51.5 0Z" fill="#3B3B3B"/>
<path d="M72.5 0L74.9346 6.14905L81.535 6.56434L76.4393 10.7799L78.084 17.1857L72.5 13.642L66.916 17.1857L68.5607 10.7799L63.465 6.56434L70.0654 6.14905L72.5 0Z" fill="#3B3B3B"/>
<path d="M93.5 0L95.9346 6.14905L102.535 6.56434L97.4393 10.7799L99.084 17.1857L93.5 13.642L87.916 17.1857L89.5607 10.7799L84.465 6.56434L91.0654 6.14905L93.5 0Z" fill="#3B3B3B"/>
</svg>
